<?xml version="1.0" standalone="no"?>
<!DOCTYPE svg PUBLIC "-//W3C//DTD SVG 20010904//EN"
 "http://www.w3.org/TR/2001/REC-SVG-20010904/DTD/svg10.dtd">
<svg version="1.0" xmlns="http://www.w3.org/2000/svg"
 width="1024.000000pt" height="1024.000000pt" viewBox="0 0 1024.000000 1024.000000"
 preserveAspectRatio="xMidYMid meet">

<g transform="translate(0.000000,1024.000000) scale(0.100000,-0.100000)"
fill="#000000" stroke="none">
<path d="M6647 8992 c-80 -177 -149 -394 -189 -594 -31 -152 -33 -504 -5 -638
59 -276 182 -516 354 -688 l83 -83 -125 3 c-69 2 -125 0 -125 -4 0 -16 130
-169 209 -247 186 -184 441 -342 701 -435 173 -63 456 -116 616 -116 52 0 74
-4 74 -12 0 -7 5 -84 10 -170 42 -655 -195 -1418 -612 -1978 -206 -276 -484
-546 -763 -741 -200 -140 -505 -300 -733 -384 -232 -86 -567 -160 -820 -181
-46 -4 -80 -10 -75 -14 31 -30 456 -40 664 -15 494 58 974 258 1369 572 126
100 345 321 454 458 368 461 567 928 653 1530 21 151 24 561 5 715 -32 256
-117 629 -184 810 -149 402 -355 677 -758 1012 -96 80 -225 197 -285 260 -102
106 -308 358 -300 367 3 2 17 -12 32 -30 117 -143 281 -286 515 -450 276 -193
402 -302 544 -472 258 -307 461 -747 514 -1114 l12 -83 40 62 c114 176 187
360 209 523 22 171 -4 371 -67 513 l-25 57 -26 -30 c-14 -16 -60 -69 -102
-117 l-76 -88 -7 103 c-15 239 -107 518 -231 702 -102 151 -243 292 -400 398
-77 52 -229 128 -392 197 -277 117 -518 260 -657 389 l-75 71 -26 -58z"/>
<path d="M4615 8763 c-720 -47 -1453 -335 -1989 -782 -263 -219 -544 -533
-719 -802 -159 -245 -327 -606 -410 -880 -64 -211 -114 -462 -138 -689 -17
-163 -14 -525 6 -705 52 -480 202 -945 447 -1385 372 -667 914 -1187 1585
-1524 354 -177 788 -302 1243 -358 167 -21 683 -17 850 5 586 80 1110 280
1592 608 288 197 676 553 882 809 174 217 381 543 462 726 39 88 20 60 -45
-67 -207 -407 -434 -705 -798 -1047 -144 -135 -205 -182 -365 -277 -335 -201
-635 -297 -1008 -325 -139 -10 -360 0 -429 20 -25 7 -70 5 -160 -7 -182 -24
-656 -24 -836 1 -1176 161 -2168 876 -2638 1898 -258 563 -341 1170 -247 1818
117 809 575 1552 1286 2086 399 300 923 531 1420 628 242 46 391 60 654 60
280 0 432 -15 714 -70 133 -26 182 -32 190 -24 21 22 -31 47 -231 113 -288 95
-532 145 -812 167 -124 9 -386 11 -506 3z"/>
<path d="M5213 8353 c37 -2 96 -2 130 0 34 2 4 3 -68 3 -71 0 -99 -1 -62 -3z"/>
<path d="M5018 8343 c17 -2 47 -2 65 0 17 2 3 4 -33 4 -36 0 -50 -2 -32 -4z"/>
<path d="M5467 8343 c18 -2 50 -2 70 0 21 2 7 4 -32 4 -38 0 -55 -2 -38 -4z"/>
<path d="M4913 8333 c15 -2 37 -2 50 0 12 2 0 4 -28 4 -27 0 -38 -2 -22 -4z"/>
<path d="M5608 8333 c12 -2 30 -2 40 0 9 3 -1 5 -23 4 -22 0 -30 -2 -17 -4z"/>
<path d="M4833 8323 c9 -2 25 -2 35 0 9 3 1 5 -18 5 -19 0 -27 -2 -17 -5z"/>
<path d="M5688 8323 c12 -2 30 -2 40 0 9 3 -1 5 -23 4 -22 0 -30 -2 -17 -4z"/>
<path d="M4768 8313 c6 -2 18 -2 25 0 6 3 1 5 -13 5 -14 0 -19 -2 -12 -5z"/>
<path d="M5763 8313 c9 -2 25 -2 35 0 9 3 1 5 -18 5 -19 0 -27 -2 -17 -5z"/>
<path d="M4713 8303 c9 -2 23 -2 30 0 6 3 -1 5 -18 5 -16 0 -22 -2 -12 -5z"/>
<path d="M5828 8303 c6 -2 18 -2 25 0 6 3 1 5 -13 5 -14 0 -19 -2 -12 -5z"/>
<path d="M4658 8293 c6 -2 18 -2 25 0 6 3 1 5 -13 5 -14 0 -19 -2 -12 -5z"/>
<path d="M5895 8290 c17 -4 39 -8 50 -8 16 0 15 2 -5 8 -14 4 -36 8 -50 8 -22
0 -22 -1 5 -8z"/>
<path d="M4550 8275 c-60 -17 -29 -18 40 0 30 7 44 13 30 13 -14 0 -45 -6 -70
-13z"/>
<path d="M6023 8264 c62 -18 64 -30 7 -37 -28 -4 -26 -4 9 -3 82 2 57 37 -35
50 -26 4 -19 0 19 -10z"/>
<path d="M4435 8245 c-39 -14 -40 -14 -5 -8 41 7 82 22 60 22 -8 0 -33 -7 -55
-14z"/>
<path d="M5673 8233 c53 -2 141 -2 195 0 53 1 9 3 -98 3 -107 0 -151 -2 -97
-3z"/>
<path d="M4247 8188 c-64 -23 -116 -43 -113 -45 2 -2 61 16 132 41 71 25 122
45 114 45 -8 0 -68 -19 -133 -41z"/>
<path d="M5468 8223 c18 -2 45 -2 60 0 15 2 0 4 -33 4 -33 0 -45 -2 -27 -4z"/>
<path d="M5368 8213 c12 -2 32 -2 45 0 12 2 2 4 -23 4 -25 0 -35 -2 -22 -4z"/>
<path d="M5293 8203 c9 -2 25 -2 35 0 9 3 1 5 -18 5 -19 0 -27 -2 -17 -5z"/>
<path d="M5223 8193 c9 -2 25 -2 35 0 9 3 1 5 -18 5 -19 0 -27 -2 -17 -5z"/>
<path d="M5163 8183 c9 -2 23 -2 30 0 6 3 -1 5 -18 5 -16 0 -22 -2 -12 -5z"/>
<path d="M5108 8173 c6 -2 18 -2 25 0 6 3 1 5 -13 5 -14 0 -19 -2 -12 -5z"/>
<path d="M5058 8163 c6 -2 18 -2 25 0 6 3 1 5 -13 5 -14 0 -19 -2 -12 -5z"/>
<path d="M4945 8142 c-33 -8 -55 -17 -50 -18 6 -2 42 5 80 15 39 11 61 19 50
19 -11 0 -47 -7 -80 -16z"/>
<path d="M4070 8120 c-8 -5 -10 -10 -5 -10 6 0 17 5 25 10 8 5 11 10 5 10 -5
0 -17 -5 -25 -10z"/>
<path d="M4725 8076 c-72 -23 -139 -48 -150 -55 -20 -12 -20 -12 0 -5 11 3 85
28 165 55 80 26 138 48 130 48 -8 0 -74 -19 -145 -43z"/>
<path d="M3903 8045 c-73 -35 -133 -66 -133 -69 0 -4 269 121 279 130 15 14
-31 -5 -146 -61z"/>
<path d="M4483 7987 c-53 -23 -88 -46 -43 -29 54 21 114 51 105 51 -5 0 -33
-10 -62 -22z"/>
<path d="M3663 7916 c-220 -130 -423 -287 -613 -475 -145 -144 -293 -315 -370
-428 -71 -105 -51 -83 58 62 248 330 624 664 958 851 55 31 73 44 61 44 -2 0
-44 -24 -94 -54z"/>
<path d="M4280 7889 c-446 -235 -833 -560 -1127 -946 -40 -53 -73 -97 -73 -99
0 -12 14 4 61 69 174 240 462 522 734 718 120 87 250 166 409 250 72 38 127
69 121 69 -5 0 -62 -28 -125 -61z"/>
<path d="M2582 6868 c-96 -151 -230 -413 -218 -426 3 -3 11 9 17 27 28 80 151
309 233 434 10 15 16 27 13 27 -2 0 -23 -28 -45 -62z"/>
<path d="M3063 6818 c-15 -20 -25 -38 -20 -38 3 0 12 11 21 25 17 26 16 35 -1
13z"/>
<path d="M3005 6729 c-36 -55 -138 -249 -131 -249 3 0 22 32 41 70 20 39 54
101 76 138 23 37 43 70 46 75 2 4 2 7 0 7 -2 0 -17 -19 -32 -41z"/>
<path d="M2826 6391 c-20 -44 -36 -84 -35 -88 0 -4 18 30 40 76 21 46 38 86
36 88 -2 2 -20 -33 -41 -76z"/>
<path d="M2342 6405 c-17 -37 -14 -45 4 -12 9 16 14 31 11 33 -2 2 -9 -7 -15
-21z"/>
<path d="M2316 6345 c-9 -26 -7 -32 5 -12 6 10 9 21 6 23 -2 3 -7 -2 -11 -11z"/>
<path d="M2291 6279 c-14 -42 -7 -49 9 -9 7 17 10 33 8 36 -3 3 -11 -9 -17
-27z"/>
<path d="M2776 6275 c-9 -26 -7 -32 5 -12 6 10 9 21 6 23 -2 3 -7 -2 -11 -11z"/>
<path d="M2251 6159 c-12 -39 -21 -72 -19 -75 2 -2 14 28 27 67 12 39 21 72
19 75 -2 2 -14 -28 -27 -67z"/>
<path d="M2726 6133 c-14 -43 -26 -83 -25 -88 0 -6 14 28 30 74 16 47 27 86
25 88 -2 3 -16 -31 -30 -74z"/>
<path d="M7174 6111 c-26 -11 -54 -49 -54 -73 0 -76 96 -116 156 -64 35 29 39
86 8 117 -23 23 -79 33 -110 20z"/>
<path d="M6210 5720 l0 -390 85 0 85 0 0 390 0 390 -85 0 -85 0 0 -390z"/>
<path d="M2940 5705 l0 -375 75 0 75 0 0 245 0 244 163 -242 164 -242 76 -3
77 -3 0 376 0 375 -75 0 -76 0 3 -245 c2 -135 1 -245 -3 -245 -3 0 -14 15 -25
33 -10 18 -84 128 -163 245 l-143 212 -74 0 -74 0 0 -375z"/>
<path d="M6480 5705 l0 -375 191 0 c104 0 210 5 233 11 161 40 211 257 85 363
l-32 27 21 22 c55 58 67 155 29 228 -17 34 -35 50 -77 72 -53 27 -55 27 -252
27 l-198 0 0 -375z m335 241 c70 -30 75 -109 8 -144 -12 -7 -60 -12 -107 -12
l-86 0 0 85 0 85 75 0 c43 0 90 -6 110 -14z m31 -301 c24 -10 39 -25 50 -50
14 -33 13 -40 -3 -73 -23 -47 -61 -61 -175 -61 l-88 -1 0 100 0 100 90 0 c57
0 104 -5 126 -15z"/>
<path d="M2221 6054 c0 -11 3 -14 6 -6 3 7 2 16 -1 19 -3 4 -6 -2 -5 -13z"/>
<path d="M4338 6048 l-68 -21 0 -68 0 -69 -40 0 -40 0 0 -65 0 -65 40 0 40 0
0 -158 c0 -144 2 -162 23 -202 14 -29 34 -51 57 -62 39 -20 125 -24 180 -8
l35 10 -3 64 -4 64 -33 -5 c-49 -8 -80 3 -93 32 -7 15 -12 75 -12 145 l0 120
75 0 75 0 0 65 0 65 -75 0 -75 0 0 90 c0 50 -3 90 -7 89 -5 -1 -38 -10 -75
-21z"/>
<path d="M2200 5980 c-7 -28 -10 -53 -8 -55 3 -3 10 18 16 47 7 28 11 53 8 55
-2 2 -9 -19 -16 -47z"/>
<path d="M2691 6014 c0 -11 3 -14 6 -6 3 7 2 16 -1 19 -3 4 -6 -2 -5 -13z"/>
<path d="M2670 5940 c-7 -28 -10 -53 -8 -55 3 -3 10 18 16 47 7 28 11 53 8 55
-2 2 -9 -19 -16 -47z"/>
<path d="M8752 5935 c0 -27 5 -84 13 -125 17 -96 17 -44 1 80 -10 74 -13 84
-14 45z"/>
<path d="M2181 5894 c0 -11 3 -14 6 -6 3 7 2 16 -1 19 -3 4 -6 -2 -5 -13z"/>
<path d="M3815 5893 c-11 -2 -44 -14 -74 -25 l-53 -21 5 -59 c3 -33 7 -62 10
-64 3 -3 23 4 45 15 67 34 128 45 172 32 44 -13 80 -52 80 -87 0 -23 -2 -24
-87 -24 -129 0 -197 -25 -246 -92 -30 -41 -34 -133 -8 -175 55 -88 234 -100
318 -21 l23 21 0 -31 0 -32 75 0 75 0 0 188 c0 227 -10 273 -70 325 -22 18
-57 39 -79 45 -37 12 -145 14 -186 5z m185 -368 c0 -40 -4 -47 -32 -65 -67
-41 -136 -38 -165 6 -15 24 -15 29 -2 53 21 37 55 51 132 51 l67 0 0 -45z"/>
<path d="M5478 5880 c-20 -11 -44 -30 -52 -42 -16 -22 -16 -22 -16 15 l0 37
-77 0 -78 0 0 -280 0 -280 78 0 77 0 0 173 c0 189 4 203 60 232 16 8 49 15 75
15 l45 0 0 75 0 75 -37 0 c-21 -1 -55 -10 -75 -20z"/>
<path d="M5785 5893 c-11 -3 -44 -14 -74 -25 l-54 -20 6 -60 c3 -33 7 -62 10
-64 3 -3 28 6 55 20 64 33 120 41 166 26 42 -13 76 -53 76 -86 0 -23 -2 -24
-83 -24 -145 0 -228 -39 -262 -122 -31 -78 2 -165 76 -203 16 -9 56 -15 94
-15 68 0 111 15 153 53 l22 20 0 -31 0 -32 76 0 76 0 -4 208 c-3 199 -4 209
-28 252 -28 49 -73 84 -129 100 -37 10 -140 12 -176 3z m185 -368 c0 -40 -4
-47 -32 -65 -66 -40 -136 -38 -164 5 -13 20 -14 28 -2 52 18 39 53 53 131 53
l67 0 0 -45z"/>
<path d="M7560 5885 c-63 -20 -124 -75 -157 -143 -24 -48 -28 -69 -27 -137 0
-93 15 -134 71 -195 56 -63 120 -90 213 -90 93 0 157 27 216 92 53 57 69 104
68 200 -1 123 -51 205 -158 260 -53 27 -163 34 -226 13z m169 -131 c33 -24 61
-91 61 -149 0 -58 -28 -125 -61 -149 -14 -9 -43 -16 -70 -16 -83 0 -129 59
-129 165 0 106 46 165 129 165 27 0 56 -7 70 -16z"/>
<path d="M4640 5705 c0 -220 9 -273 57 -326 71 -79 209 -84 286 -11 l27 26 -6
-32 -6 -32 78 0 79 0 0 280 0 280 -77 0 -78 0 0 -189 c0 -187 0 -190 -25 -219
-13 -16 -38 -32 -55 -36 -38 -7 -94 15 -109 42 -7 13 -11 94 -11 211 l0 191
-80 0 -80 0 0 -185z"/>
<path d="M7140 5610 l0 -280 78 0 77 0 0 280 0 280 -77 0 -78 0 0 -280z"/>
<path d="M2172 5850 c0 -14 2 -19 5 -12 2 6 2 18 0 25 -3 6 -5 1 -5 -13z"/>
<path d="M2652 5850 c0 -14 2 -19 5 -12 2 6 2 18 0 25 -3 6 -5 1 -5 -13z"/>
<path d="M2162 5795 c0 -16 2 -22 5 -12 2 9 2 23 0 30 -3 6 -5 -1 -5 -18z"/>
<path d="M2642 5800 c0 -14 2 -19 5 -12 2 6 2 18 0 25 -3 6 -5 1 -5 -13z"/>
<path d="M2152 5735 c0 -16 2 -22 5 -12 2 9 2 23 0 30 -3 6 -5 -1 -5 -18z"/>
<path d="M2632 5740 c0 -14 2 -19 5 -12 2 6 2 18 0 25 -3 6 -5 1 -5 -13z"/>
<path d="M8754 5635 c0 -60 1 -84 3 -52 2 32 2 81 0 110 -2 29 -3 3 -3 -58z"/>
<path d="M8783 5680 c0 -30 2 -43 4 -27 2 15 2 39 0 55 -2 15 -4 2 -4 -28z"/>
<path d="M2622 5685 c0 -16 2 -22 5 -12 2 9 2 23 0 30 -3 6 -5 -1 -5 -18z"/>
<path d="M2142 5670 c0 -19 2 -27 5 -17 2 9 2 25 0 35 -3 9 -5 1 -5 -18z"/>
<path d="M2612 5610 c0 -19 2 -27 5 -17 2 9 2 25 0 35 -3 9 -5 1 -5 -18z"/>
<path d="M2133 5595 c0 -22 2 -30 4 -17 2 12 2 30 0 40 -3 9 -5 -1 -4 -23z"/>
<path d="M8794 5410 c0 -107 2 -151 3 -97 2 53 2 141 0 195 -1 53 -3 9 -3 -98z"/>
<path d="M2603 5515 c0 -22 2 -30 4 -17 2 12 2 30 0 40 -3 9 -5 -1 -4 -23z"/>
<path d="M2123 5480 c0 -36 2 -50 4 -32 2 17 2 47 0 65 -2 17 -4 3 -4 -33z"/>
<path d="M8743 5465 c0 -27 2 -38 4 -22 2 15 2 37 0 50 -2 12 -4 0 -4 -28z"/>
<path d="M2594 5255 c0 -104 2 -146 3 -92 2 54 2 139 0 190 -1 51 -3 7 -3 -98z"/>
<path d="M8733 5370 c0 -25 2 -35 4 -22 2 12 2 32 0 45 -2 12 -4 2 -4 -23z"/>
<path d="M2114 5220 c0 -91 2 -128 3 -82 2 45 2 119 0 165 -1 45 -3 8 -3 -83z"/>
<path d="M8715 5265 c-3 -31 -5 -59 -2 -61 3 -3 8 20 12 51 3 31 5 59 2 61 -3
3 -8 -20 -12 -51z"/>
<path d="M8695 5145 c-3 -26 -4 -49 -2 -51 3 -3 8 16 12 41 3 26 4 49 2 51 -3
3 -8 -16 -12 -41z"/>
<path d="M8783 5120 c0 -30 2 -43 4 -27 2 15 2 39 0 55 -2 15 -4 2 -4 -28z"/>
<path d="M3065 5096 c-41 -18 -83 -69 -91 -111 -14 -77 45 -153 148 -189 91
-32 127 -54 134 -82 19 -75 -125 -100 -199 -34 l-32 28 -40 -33 -39 -34 19
-21 c49 -54 163 -85 249 -69 89 16 146 79 146 161 0 78 -48 129 -155 164 -96
32 -125 51 -125 84 0 71 134 83 189 16 11 -14 18 -12 53 17 l40 32 -36 31
c-19 17 -53 36 -74 42 -52 16 -149 15 -187 -2z"/>
<path d="M3667 5096 c-233 -83 -247 -411 -22 -521 73 -36 179 -37 251 -4 114
54 170 153 162 284 -8 116 -73 204 -177 240 -54 18 -163 19 -214 1z m170 -87
c68 -25 113 -95 113 -174 0 -81 -35 -142 -102 -176 -118 -60 -250 30 -252 171
-2 131 123 224 241 179z"/>
<path d="M4210 4830 l0 -280 185 0 185 0 0 50 0 50 -130 0 -130 0 0 230 0 230
-55 0 -55 0 0 -280z"/>
<path d="M4690 4927 c0 -211 11 -264 62 -314 46 -44 98 -64 173 -64 109 -1
200 59 224 148 6 21 11 122 11 226 l0 187 -55 0 -55 0 0 -191 c0 -162 -3 -195
-17 -220 -40 -67 -140 -77 -197 -20 l-31 31 -3 200 -3 200 -55 0 -54 0 0 -183z"/>
<path d="M5290 5059 l0 -50 86 2 85 2 -1 -232 -1 -231 55 0 56 0 2 231 3 231
84 2 84 1 1 48 1 47 -227 0 -228 0 0 -51z"/>
<path d="M5880 4830 l0 -280 55 0 55 0 0 280 0 280 -55 0 -55 0 0 -280z"/>
<path d="M6310 5089 c-55 -25 -114 -80 -143 -134 -29 -54 -31 -193 -4 -243 31
-57 90 -114 142 -138 73 -35 182 -34 253 2 217 108 198 436 -31 521 -53 19
-166 15 -217 -8z m177 -80 c94 -35 140 -164 94 -264 -62 -136 -239 -139 -307
-5 -79 154 59 328 213 269z"/>
<path d="M6850 4830 l0 -280 55 0 55 0 2 185 3 185 139 -185 140 -185 43 0 43
0 0 280 0 280 -55 0 -56 0 3 -180 c2 -99 1 -180 -2 -180 -3 0 -66 81 -140 180
l-134 180 -48 0 -48 0 0 -280z"/>
<path d="M7585 5094 c-48 -24 -74 -55 -85 -96 -22 -80 22 -151 120 -192 163
-69 168 -73 156 -119 -15 -61 -142 -61 -204 1 -19 19 -20 19 -58 -14 l-39 -34
39 -35 c94 -84 282 -75 347 16 18 25 24 47 24 86 0 83 -49 133 -170 173 -35
12 -75 30 -89 41 -53 41 -19 99 57 99 41 0 70 -12 102 -41 20 -18 22 -18 58
12 37 31 38 32 20 52 -10 11 -40 30 -68 43 -60 29 -163 33 -210 8z"/>
<path d="M8676 5044 c-4 -20 -5 -38 -3 -40 3 -3 8 11 11 32 4 20 5 38 3 40 -3
3 -8 -11 -11 -32z"/>
<path d="M8773 5005 c0 -27 2 -38 4 -22 2 15 2 37 0 50 -2 12 -4 0 -4 -28z"/>
<path d="M2123 4985 c0 -33 2 -45 4 -27 2 18 2 45 0 60 -2 15 -4 0 -4 -33z"/>
<path d="M2603 4995 c0 -27 2 -38 4 -22 2 15 2 37 0 50 -2 12 -4 0 -4 -28z"/>
<path d="M8656 4959 c-8 -42 0 -50 9 -9 4 17 5 34 2 36 -2 3 -7 -10 -11 -27z"/>
<path d="M8762 4920 c0 -19 2 -27 5 -17 2 9 2 25 0 35 -3 9 -5 1 -5 -18z"/>
<path d="M2612 4910 c0 -19 2 -27 5 -17 2 9 2 25 0 35 -3 9 -5 1 -5 -18z"/>
<path d="M2133 4880 c0 -25 2 -35 4 -22 2 12 2 32 0 45 -2 12 -4 2 -4 -23z"/>
<path d="M8641 4894 c0 -11 3 -14 6 -6 3 7 2 16 -1 19 -3 4 -6 -2 -5 -13z"/>
<path d="M8752 4850 c0 -19 2 -27 5 -17 2 9 2 25 0 35 -3 9 -5 1 -5 -18z"/>
<path d="M8626 4844 c-4 -14 -5 -28 -3 -31 3 -2 8 8 11 23 4 14 5 28 3 31 -3
2 -8 -8 -11 -23z"/>
<path d="M2622 4835 c0 -16 4 -43 8 -60 11 -42 11 -1 1 50 -7 34 -9 35 -9 10z"/>
<path d="M2142 4800 c0 -19 2 -27 5 -17 2 9 2 25 0 35 -3 9 -5 1 -5 -18z"/>
<path d="M8742 4785 c0 -16 2 -22 5 -12 2 9 2 23 0 30 -3 6 -5 -1 -5 -18z"/>
<path d="M8597 4743 c-9 -31 -15 -58 -13 -61 2 -2 12 22 21 53 9 32 14 59 12
61 -2 3 -11 -21 -20 -53z"/>
<path d="M2152 4735 c0 -16 2 -22 5 -12 2 9 2 23 0 30 -3 6 -5 -1 -5 -18z"/>
<path d="M8732 4725 c0 -16 2 -22 5 -12 2 9 2 23 0 30 -3 6 -5 -1 -5 -18z"/>
<path d="M2642 4720 c0 -14 2 -19 5 -12 2 6 2 18 0 25 -3 6 -5 1 -5 -13z"/>
<path d="M2162 4680 c0 -14 2 -19 5 -12 2 6 2 18 0 25 -3 6 -5 1 -5 -13z"/>
<path d="M2651 4674 c0 -11 3 -14 6 -6 3 7 2 16 -1 19 -3 4 -6 -2 -5 -13z"/>
<path d="M8722 4670 c0 -14 2 -19 5 -12 2 6 2 18 0 25 -3 6 -5 1 -5 -13z"/>
<path d="M8529 4542 c-66 -180 -63 -171 -49 -149 16 26 101 258 98 268 -2 4
-24 -49 -49 -119z"/>
<path d="M2172 4630 c0 -14 2 -19 5 -12 2 6 2 18 0 25 -3 6 -5 1 -5 -13z"/>
<path d="M2662 4635 c0 -21 25 -107 27 -90 0 6 -6 33 -13 60 -8 28 -14 41 -14
30z"/>
<path d="M8712 4620 c0 -14 2 -19 5 -12 2 6 2 18 0 25 -3 6 -5 1 -5 -13z"/>
<path d="M2181 4592 c-1 -19 32 -148 36 -137 1 6 -6 42 -16 80 -11 39 -20 64
-20 57z"/>
<path d="M8671 4469 c-17 -67 -30 -123 -28 -126 2 -2 19 51 36 118 18 66 31
123 28 125 -2 2 -18 -51 -36 -117z"/>
<path d="M2691 4524 c-2 -32 137 -395 161 -419 11 -12 1 16 -38 100 -15 33
-49 121 -75 195 -26 74 -48 130 -48 124z"/>
<path d="M2221 4424 c0 -11 3 -14 6 -6 3 7 2 16 -1 19 -3 4 -6 -2 -5 -13z"/>
<path d="M8456 4355 c-9 -26 -7 -32 5 -12 6 10 9 21 6 23 -2 3 -7 -2 -11 -11z"/>
<path d="M2251 4330 c0 -8 6 -28 14 -45 17 -39 18 -21 0 25 -7 19 -14 28 -14
20z"/>
<path d="M8394 4213 c-56 -122 -60 -132 -47 -118 13 14 105 216 100 221 -2 2
-25 -44 -53 -103z"/>
<path d="M8583 4182 c-24 -63 -41 -117 -39 -119 2 -2 23 48 46 112 24 63 41
117 39 119 -2 2 -23 -48 -46 -112z"/>
<path d="M2291 4218 c-1 -12 31 -89 35 -85 3 2 -4 24 -15 48 -11 24 -20 41
-20 37z"/>
<path d="M2330 4115 c0 -20 139 -293 203 -397 224 -366 537 -689 917 -943 174
-116 456 -269 435 -235 -4 6 -12 10 -18 10 -7 0 -75 34 -152 76 -294 160 -523
331 -744 554 -251 253 -407 471 -562 785 -43 88 -79 155 -79 150z"/>
<path d="M2860 4081 c0 -6 4 -13 10 -16 6 -3 7 1 4 9 -7 18 -14 21 -14 7z"/>
<path d="M8272 3966 c-105 -199 -280 -461 -445 -666 -95 -117 -381 -403 -497
-497 -114 -92 -297 -218 -403 -277 -37 -21 -67 -40 -67 -43 0 -16 291 169 407
258 303 234 579 539 829 916 99 149 255 423 241 423 -3 0 -32 -51 -65 -114z"/>
<path d="M2880 4046 c0 -10 103 -183 117 -196 10 -9 8 -3 -4 15 -11 17 -39 65
-63 108 -37 68 -50 87 -50 73z"/>
<path d="M8527 4043 c-4 -3 -7 -13 -7 -22 1 -13 3 -13 11 2 11 19 8 33 -4 20z"/>
<path d="M8502 3975 c-17 -37 -14 -45 4 -12 9 16 14 31 11 33 -2 2 -9 -7 -15
-21z"/>
<path d="M8462 3885 c-17 -37 -14 -45 4 -12 9 16 14 31 11 33 -2 2 -9 -7 -15
-21z"/>
<path d="M3020 3812 c13 -28 177 -244 220 -289 56 -61 42 -34 -18 35 -50 57
-108 131 -195 252 -16 23 -17 23 -7 2z"/>
<path d="M3400 3359 c69 -68 159 -151 200 -185 76 -62 244 -180 290 -204 43
-22 8 5 -95 73 -134 88 -244 178 -394 321 l-126 119 125 -124z"/>
<path d="M7395 3079 c-118 -90 -460 -299 -489 -299 -5 0 -7 -3 -3 -6 9 -9 178
83 296 161 55 36 103 65 107 65 20 0 -142 -137 -261 -221 -178 -125 -443 -266
-637 -339 -49 -19 -86 -35 -84 -38 8 -7 238 89 356 149 130 66 309 176 420
257 115 85 250 204 243 215 -3 6 -2 7 4 4 5 -3 29 14 53 38 52 53 50 56 -5 14z"/>
<path d="M3920 2956 c0 -3 9 -10 20 -16 11 -6 20 -8 20 -6 0 3 -9 10 -20 16
-11 6 -20 8 -20 6z"/>
<path d="M3975 2922 c14 -14 245 -135 250 -131 2 2 -56 35 -128 72 -73 38
-127 64 -122 59z"/>
<path d="M4260 2776 c0 -12 365 -147 393 -145 7 0 -55 24 -138 53 -82 29 -172
62 -199 74 -51 23 -56 25 -56 18z"/>
<path d="M6810 2738 c-36 -17 -112 -48 -170 -69 -58 -21 -100 -38 -93 -38 19
-1 193 64 274 102 41 19 70 35 64 35 -5 0 -39 -13 -75 -30z"/>
<path d="M6485 2620 c-13 -5 -14 -9 -5 -9 8 0 24 4 35 9 13 5 14 9 5 9 -8 0
-24 -4 -35 -9z"/>
<path d="M4708 2613 c7 -3 16 -2 19 1 4 3 -2 6 -13 5 -11 0 -14 -3 -6 -6z"/>
<path d="M4775 2595 c22 -8 51 -13 65 -13 14 0 0 6 -30 13 -69 18 -88 17 -35
0z"/>
<path d="M6410 2600 c-20 -6 -21 -8 -5 -8 11 0 29 3 40 8 25 11 -1 11 -35 0z"/>
<path d="M6358 2583 c7 -3 16 -2 19 1 4 3 -2 6 -13 5 -11 0 -14 -3 -6 -6z"/>
<path d="M4886 2570 c12 -5 43 -11 70 -14 48 -5 47 -5 -11 9 -67 16 -91 18
-59 5z"/>
<path d="M6280 2570 c-20 -6 -21 -8 -5 -8 11 0 31 4 45 8 20 6 21 8 5 8 -11 0
-31 -4 -45 -8z"/>
<path d="M6213 2553 c9 -2 23 -2 30 0 6 3 -1 5 -18 5 -16 0 -22 -2 -12 -5z"/>
<path d="M5023 2543 c9 -2 23 -2 30 0 6 3 -1 5 -18 5 -16 0 -22 -2 -12 -5z"/>
<path d="M6153 2543 c9 -2 23 -2 30 0 6 3 -1 5 -18 5 -16 0 -22 -2 -12 -5z"/>
<path d="M5083 2533 c9 -2 25 -2 35 0 9 3 1 5 -18 5 -19 0 -27 -2 -17 -5z"/>
<path d="M6088 2533 c6 -2 18 -2 25 0 6 3 1 5 -13 5 -14 0 -19 -2 -12 -5z"/>
<path d="M3933 2509 c22 -11 41 -18 44 -15 5 5 -62 36 -76 36 -3 -1 11 -10 32
-21z"/>
<path d="M5185 2520 c52 -9 141 -13 134 -6 -2 2 -44 6 -94 9 -66 4 -77 3 -40
-3z"/>
<path d="M6008 2523 c12 -2 32 -2 45 0 12 2 2 4 -23 4 -25 0 -35 -2 -22 -4z"/>
<path d="M5908 2513 c12 -2 32 -2 45 0 12 2 2 4 -23 4 -25 0 -35 -2 -22 -4z"/>
<path d="M5373 2503 c20 -2 54 -2 75 0 20 2 3 4 -38 4 -41 0 -58 -2 -37 -4z"/>
<path d="M5733 2503 c26 -2 68 -2 95 0 26 2 4 3 -48 3 -52 0 -74 -1 -47 -3z"/>
<path d="M5567 2493 c18 -2 50 -2 70 0 21 2 7 4 -32 4 -38 0 -55 -2 -38 -4z"/>
<path d="M4000 2480 c8 -5 20 -10 25 -10 6 0 3 5 -5 10 -8 5 -19 10 -25 10 -5
0 -3 -5 5 -10z"/>
<path d="M6740 2425 c-58 -30 -102 -54 -97 -54 10 -1 207 98 207 104 0 7 6 10
-110 -50z"/>
<path d="M4079 2449 c24 -11 46 -18 48 -15 4 4 -73 36 -85 35 -4 0 13 -9 37
-20z"/>
<path d="M4155 2420 c27 -12 43 -12 25 0 -8 5 -22 9 -30 9 -10 0 -8 -3 5 -9z"/>
<path d="M6200 2369 c-47 -16 -70 -26 -51 -23 40 7 172 53 151 52 -8 0 -53
-13 -100 -29z"/>
<path d="M4305 2370 c28 -10 57 -18 65 -18 8 0 -7 8 -35 18 -27 10 -57 18 -65
18 -8 0 8 -8 35 -18z"/>
<path d="M6498 2316 c-64 -28 -115 -52 -113 -54 4 -5 227 88 240 99 17 16 -9
7 -127 -45z"/>
<path d="M4410 2340 c34 -11 60 -11 35 0 -11 5 -29 8 -40 8 -16 0 -15 -2 5 -8z"/>
<path d="M6088 2333 c7 -3 16 -2 19 1 4 3 -2 6 -13 5 -11 0 -14 -3 -6 -6z"/>
<path d="M4478 2323 c7 -3 16 -2 19 1 4 3 -2 6 -13 5 -11 0 -14 -3 -6 -6z"/>
<path d="M6020 2320 c-20 -6 -21 -8 -5 -8 11 0 29 3 40 8 25 11 -1 11 -35 0z"/>
<path d="M4530 2310 c14 -4 34 -8 45 -8 16 0 15 2 -5 8 -14 4 -34 8 -45 8 -16
0 -15 -2 5 -8z"/>
<path d="M5958 2303 c6 -2 18 -2 25 0 6 3 1 5 -13 5 -14 0 -19 -2 -12 -5z"/>
<path d="M4613 2293 c9 -2 23 -2 30 0 6 3 -1 5 -18 5 -16 0 -22 -2 -12 -5z"/>
<path d="M5865 2290 c-27 -7 -27 -8 -5 -8 14 0 39 4 55 8 27 7 27 8 5 8 -14 0
-38 -4 -55 -8z"/>
<path d="M4685 2280 c17 -4 44 -8 60 -8 25 0 24 2 -10 9 -51 10 -92 10 -50 -1z"/>
<path d="M5793 2273 c9 -2 23 -2 30 0 6 3 -1 5 -18 5 -16 0 -22 -2 -12 -5z"/>
<path d="M4793 2263 c9 -2 25 -2 35 0 9 3 1 5 -18 5 -19 0 -27 -2 -17 -5z"/>
<path d="M5733 2263 c9 -2 23 -2 30 0 6 3 -1 5 -18 5 -16 0 -22 -2 -12 -5z"/>
<path d="M4868 2253 c12 -2 30 -2 40 0 9 3 -1 5 -23 4 -22 0 -30 -2 -17 -4z"/>
<path d="M5648 2253 c12 -2 30 -2 40 0 9 3 -1 5 -23 4 -22 0 -30 -2 -17 -4z"/>
<path d="M6225 2215 c-71 -24 -125 -44 -119 -44 15 -1 264 78 264 84 0 8 -7 6
-145 -40z"/>
<path d="M4963 2243 c15 -2 39 -2 55 0 15 2 2 4 -28 4 -30 0 -43 -2 -27 -4z"/>
<path d="M5533 2243 c15 -2 39 -2 55 0 15 2 2 4 -28 4 -30 0 -43 -2 -27 -4z"/>
<path d="M5162 2233 c59 -2 158 -2 220 0 62 1 14 3 -107 3 -121 0 -172 -2
-113 -3z"/>
<path d="M6068 2163 c7 -3 16 -2 19 1 4 3 -2 6 -13 5 -11 0 -14 -3 -6 -6z"/>
<path d="M6028 2153 c7 -3 16 -2 19 1 4 3 -2 6 -13 5 -11 0 -14 -3 -6 -6z"/>
<path d="M5988 2143 c7 -3 16 -2 19 1 4 3 -2 6 -13 5 -11 0 -14 -3 -6 -6z"/>
<path d="M5855 2119 c-47 -11 -61 -16 -35 -13 54 6 163 32 135 32 -11 0 -56
-9 -100 -19z"/>
</g>
</svg>
